<?xml version="1.0" encoding="utf-8"?>
<!-- Generator: Adobe Illustrator 16.0.0, SVG Export Plug-In . SVG Version: 6.00 Build 0)  -->
<!DOCTYPE svg PUBLIC "-//W3C//DTD SVG 1.1//EN" "http://www.w3.org/Graphics/SVG/1.1/DTD/svg11.dtd">
<svg version="1.1" id="Layer_1" xmlns="http://www.w3.org/2000/svg" xmlns:xlink="http://www.w3.org/1999/xlink" x="0px" y="0px"
	 width="165px" height="22px" viewBox="-15.097 -2 165 22" enable-background="new -15.097 -2 165 22" xml:space="preserve">
<g>
	<polygon fill="#222222" points="-1.865,-2 -10.683,-2 -10.683,2.41 -1.865,2.41 	"/>
	<polygon fill="#222222" points="-15.097,2.41 -15.097,20 -10.683,20 -10.683,11.208 -4.062,11.208 -4.062,6.796 -10.683,6.796 
		-10.683,2.41 	"/>
	<polygon fill="#F0515A" points="-10.682,-2 -10.682,2.41 -15.096,2.41 	"/>
	<polygon fill="#222222" points="51.707,2.41 51.707,20 56.121,20 56.121,11.208 62.741,11.208 62.741,6.796 56.121,6.796 
		56.121,2.41 	"/>
	<polygon fill="#E9C6A7" points="14.863,-2 14.863,2.41 19.28,2.41 	"/>
	<polygon fill="#222222" points="14.863,2.41 14.863,6.796 10.474,6.796 10.474,2.41 10.474,2.41 14.863,2.41 14.863,-2 10.474,-2 
		10.474,-2 6.059,2.41 6.059,20 10.474,20 10.474,11.208 14.863,11.208 14.863,20 19.28,20 19.28,2.41 	"/>
	<polygon fill="#222222" points="136.684,-2 136.684,20 141.098,20 141.098,11.208 145.489,11.208 145.489,20 149.903,20 
		149.903,-2 145.489,-2 145.489,6.796 141.098,6.796 141.098,-2 141.098,-2 	"/>
	<polygon fill="#222222" points="33.296,6.796 33.296,2.41 37.732,2.41 37.732,2.41 37.732,6.796 42.145,6.796 42.145,2.41 
		42.145,2.41 37.732,-2 37.732,-2 28.897,-2 28.897,20 33.296,20 33.296,11.208 37.732,11.208 37.732,11.208 37.732,11.208 
		37.732,20 42.145,20 42.145,11.208 37.732,6.796 	"/>
	<polygon fill="#F0515A" points="64.938,-2 56.121,-2 51.707,2.41 56.121,2.41 56.121,2.41 64.938,2.41 	"/>
	<polygon fill="#222222" points="107.501,-2 94.286,-2 94.27,2.41 98.679,2.41 98.679,20 103.093,20 103.093,2.41 107.501,2.41 	"/>
	<polygon fill="#E9C6A7" points="128.829,20 120.013,20 120.013,20 115.599,15.596 120.014,15.596 120.014,15.596 128.829,15.596 	
		"/>
	<polygon fill="#222222" points="76.656,15.596 76.656,15.596 76.655,15.596 76.655,11.208 83.275,11.208 83.275,6.796 
		76.655,6.796 76.655,2.41 76.656,2.41 76.656,2.41 85.472,2.41 85.472,-2 76.655,-2 76.655,-2 72.241,2.41 72.239,2.41 
		72.239,15.596 72.243,15.596 76.655,20 76.655,20 85.472,20 85.472,15.596 	"/>
	<polygon fill="#222222" points="120.01,-2 120.01,-2 115.599,2.41 115.599,15.596 120.014,15.596 120.014,2.41 128.827,2.41 
		128.827,-2 	"/>
</g>
</svg>
